G04*
G04 #@! TF.GenerationSoftware,Altium Limited,CircuitMaker,2.3.0 (3)*
G04*
G04 Layer_Color=13813960*
%FSLAX25Y25*%
%MOIN*%
G70*
G04*
G04 #@! TF.SameCoordinates,D5F01219-70E6-4597-8F9B-96EA77F89AD0*
G04*
G04*
G04 #@! TF.FilePolarity,Positive*
G04*
G01*
G75*
%ADD14C,0.00709*%
%ADD43R,0.19685X0.19685*%
G36*
X237795Y121053D02*
X235806D01*
Y122047D01*
X237795D01*
Y121053D01*
D02*
G37*
G36*
Y119063D02*
X235806D01*
Y120058D01*
X237795D01*
Y119063D01*
D02*
G37*
G36*
Y117074D02*
X235806D01*
Y118069D01*
X237795D01*
Y117074D01*
D02*
G37*
G36*
X223871Y121053D02*
X227849D01*
Y120058D01*
X224865D01*
Y119063D01*
X225860D01*
Y118069D01*
X226854D01*
Y117074D01*
X227849D01*
Y116080D01*
X228844D01*
Y122047D01*
X234811D01*
Y116080D01*
X237795D01*
Y113096D01*
X234811D01*
Y114727D01*
Y114737D01*
Y116080D01*
X233817D01*
Y117074D01*
X229838D01*
Y113096D01*
X228844D01*
Y115085D01*
X227849D01*
Y116080D01*
X226854D01*
Y117074D01*
X225860D01*
Y114090D01*
X224865D01*
Y118069D01*
X222876D01*
Y112101D01*
X227849D01*
Y111107D01*
X226854D01*
Y109117D01*
X227849D01*
Y107128D01*
X228844D01*
Y108123D01*
X230833D01*
Y110112D01*
X228844D01*
Y111107D01*
X230833D01*
Y116080D01*
X233817D01*
Y113096D01*
X231828D01*
Y111107D01*
X234811D01*
Y110112D01*
X235806D01*
Y112101D01*
X236801D01*
Y110112D01*
X237795D01*
Y109117D01*
X236801D01*
Y106133D01*
X237795D01*
Y105139D01*
X236801D01*
Y104731D01*
Y104721D01*
Y104144D01*
X237795D01*
Y103150D01*
X235806D01*
Y106133D01*
X234811D01*
Y107128D01*
X233817D01*
Y105139D01*
X232822D01*
Y107128D01*
X229838D01*
Y106133D01*
X230833D01*
Y106123D01*
Y106114D01*
Y105139D01*
X232822D01*
Y105000D01*
Y104990D01*
Y104144D01*
X234811D01*
Y103239D01*
Y103229D01*
Y103150D01*
X232822D01*
Y104144D01*
X230833D01*
Y105139D01*
X229838D01*
Y106133D01*
X227849D01*
Y103150D01*
X223871D01*
Y104144D01*
X222876D01*
Y107128D01*
X220887D01*
Y103150D01*
X219892D01*
Y107128D01*
X218898D01*
Y108123D01*
X219892D01*
Y111107D01*
X218898D01*
Y112101D01*
X221882D01*
Y118069D01*
X219892D01*
Y115085D01*
X220887D01*
Y114090D01*
X218898D01*
Y119063D01*
X223871D01*
Y120058D01*
X218898D01*
Y121053D01*
X222876D01*
Y123042D01*
X223871D01*
Y121053D01*
D02*
G37*
G36*
X230833Y103150D02*
X228844D01*
Y103448D01*
Y103458D01*
Y104144D01*
X230833D01*
Y103150D01*
D02*
G37*
%LPC*%
G36*
X233817Y121053D02*
X232822D01*
Y120058D01*
X233817D01*
Y121053D01*
D02*
G37*
G36*
X231828D02*
X229838D01*
Y120058D01*
X231828D01*
Y121053D01*
D02*
G37*
G36*
X233817Y119063D02*
X232822D01*
Y119004D01*
Y118994D01*
Y118069D01*
X233817D01*
Y119063D01*
D02*
G37*
G36*
X231828D02*
X229838D01*
Y118069D01*
X231828D01*
Y118606D01*
Y118616D01*
Y119063D01*
D02*
G37*
G36*
X236801Y115085D02*
X235806D01*
Y114369D01*
Y114359D01*
Y114090D01*
X236801D01*
Y115085D01*
D02*
G37*
G36*
X232822D02*
X231828D01*
Y114090D01*
X232822D01*
Y114458D01*
Y114468D01*
Y115085D01*
D02*
G37*
G36*
X225860Y111107D02*
X223871D01*
Y108123D01*
X226854D01*
Y109117D01*
X225860D01*
Y111107D01*
D02*
G37*
G36*
X222876D02*
X220887D01*
Y109157D01*
Y109147D01*
Y108123D01*
X222876D01*
Y111107D01*
D02*
G37*
G36*
X234811Y110112D02*
X231828D01*
Y108123D01*
X234811D01*
Y107128D01*
X235806D01*
Y109117D01*
X234811D01*
Y110112D01*
D02*
G37*
G36*
X226854Y107128D02*
X225860D01*
Y106521D01*
Y106511D01*
Y104144D01*
X226854D01*
Y107128D01*
D02*
G37*
G36*
X224865D02*
X223871D01*
Y104144D01*
X224865D01*
Y107128D01*
D02*
G37*
%LPD*%
D14*
X211890Y113307D02*
Y116455D01*
X211103D01*
X210315Y115668D01*
Y113307D01*
Y115668D01*
X209528Y116455D01*
X208741Y115668D01*
Y113307D01*
X207167D02*
X205593D01*
X206380D01*
Y116455D01*
X207167D01*
X200083D02*
X202444D01*
X203231Y115668D01*
Y114094D01*
X202444Y113307D01*
X200083D01*
X192998Y116455D02*
X191424D01*
X190637Y115668D01*
Y113307D01*
X192998D01*
X193785Y114094D01*
X192998Y114881D01*
X190637D01*
X185914Y118030D02*
Y113307D01*
X188275D01*
X189062Y114094D01*
Y115668D01*
X188275Y116455D01*
X185914D01*
X183553D02*
X181978D01*
X181191Y115668D01*
Y113307D01*
X183553D01*
X184340Y114094D01*
X183553Y114881D01*
X181191D01*
X179617Y111732D02*
Y116455D01*
X177255D01*
X176468Y115668D01*
Y114094D01*
X177255Y113307D01*
X179617D01*
X174107Y117243D02*
Y116455D01*
X174894D01*
X173320D01*
X174107D01*
Y114094D01*
X173320Y113307D01*
X168597D02*
X170171D01*
X170958Y114094D01*
Y115668D01*
X170171Y116455D01*
X168597D01*
X167809Y115668D01*
Y114881D01*
X170958D01*
X166235Y116455D02*
Y113307D01*
Y114881D01*
X165448Y115668D01*
X164661Y116455D01*
X163874D01*
X211103Y103858D02*
Y107794D01*
Y106220D01*
X211890D01*
X210315D01*
X211103D01*
Y107794D01*
X210315Y108581D01*
X207167Y103858D02*
X205593D01*
X204805Y104645D01*
Y106220D01*
X205593Y107007D01*
X207167D01*
X207954Y106220D01*
Y104645D01*
X207167Y103858D01*
X203231Y107007D02*
Y103858D01*
Y105433D01*
X202444Y106220D01*
X201657Y107007D01*
X200870D01*
X191424Y108581D02*
X192998D01*
X193785Y107794D01*
Y104645D01*
X192998Y103858D01*
X191424D01*
X190637Y104645D01*
Y107794D01*
X191424Y108581D01*
X189062Y103858D02*
Y108581D01*
X185914Y103858D01*
Y108581D01*
X181191D02*
X184340D01*
Y103858D01*
X181191D01*
X184340Y106220D02*
X182765D01*
X174894Y103858D02*
Y108581D01*
X172532D01*
X171745Y107794D01*
Y106220D01*
X172532Y105433D01*
X174894D01*
X173320D02*
X171745Y103858D01*
D43*
X157874Y190157D02*
D03*
M02*
