G04*
G04 #@! TF.GenerationSoftware,Altium Limited,CircuitMaker,2.3.0 (3)*
G04*
G04 Layer_Color=20142*
%FSLAX25Y25*%
%MOIN*%
G70*
G04*
G04 #@! TF.SameCoordinates,D5F01219-70E6-4597-8F9B-96EA77F89AD0*
G04*
G04*
G04 #@! TF.FilePolarity,Negative*
G04*
G01*
G75*
%ADD20R,0.04134X0.01772*%
%ADD21R,0.02953X0.03150*%
%ADD22R,0.05591X0.03583*%
%ADD23R,0.02953X0.02756*%
G04:AMPARAMS|DCode=24|XSize=37.4mil|YSize=41.34mil|CornerRadius=6.1mil|HoleSize=0mil|Usage=FLASHONLY|Rotation=270.000|XOffset=0mil|YOffset=0mil|HoleType=Round|Shape=RoundedRectangle|*
%AMROUNDEDRECTD24*
21,1,0.03740,0.02913,0,0,270.0*
21,1,0.02520,0.04134,0,0,270.0*
1,1,0.01221,-0.01457,-0.01260*
1,1,0.01221,-0.01457,0.01260*
1,1,0.01221,0.01457,0.01260*
1,1,0.01221,0.01457,-0.01260*
%
%ADD24ROUNDEDRECTD24*%
%ADD25C,0.06284*%
%ADD26C,0.02953*%
%ADD27O,0.06890X0.03740*%
%ADD28O,0.05905X0.04134*%
%ADD29C,0.03347*%
%ADD30O,0.03347X0.04528*%
%ADD31O,0.05905X0.03740*%
%ADD32C,0.05118*%
%ADD33R,0.09646X0.07677*%
D20*
X219685Y161181D02*
D03*
Y163150D02*
D03*
Y165118D02*
D03*
Y167087D02*
D03*
Y169055D02*
D03*
Y171024D02*
D03*
Y172992D02*
D03*
Y174961D02*
D03*
Y176929D02*
D03*
Y178898D02*
D03*
Y180866D02*
D03*
Y182835D02*
D03*
X134252Y182441D02*
D03*
Y180472D02*
D03*
Y178504D02*
D03*
Y176535D02*
D03*
Y174567D02*
D03*
Y172598D02*
D03*
Y170630D02*
D03*
Y168661D02*
D03*
Y166693D02*
D03*
Y164724D02*
D03*
Y162756D02*
D03*
Y160787D02*
D03*
D21*
X244783Y143307D02*
D03*
X241043D02*
D03*
D22*
X188961Y177000D02*
D03*
Y172000D02*
D03*
Y167000D02*
D03*
Y162000D02*
D03*
X159039D02*
D03*
Y167000D02*
D03*
Y172000D02*
D03*
Y177000D02*
D03*
D23*
X210531Y189567D02*
D03*
X207185D02*
D03*
X129035Y147638D02*
D03*
X132382D02*
D03*
X142815Y174409D02*
D03*
X146161D02*
D03*
D24*
X190945Y193307D02*
D03*
X198819Y197047D02*
D03*
Y189567D02*
D03*
D25*
X245669Y198425D02*
D03*
Y107874D02*
D03*
X107874Y198425D02*
D03*
D26*
X224449Y183031D02*
D03*
X227205Y181457D02*
D03*
Y178307D02*
D03*
X224449Y176732D02*
D03*
X227205Y175157D02*
D03*
X224449Y173583D02*
D03*
Y170433D02*
D03*
X227205Y168858D02*
D03*
X224449Y167283D02*
D03*
X227205Y165709D02*
D03*
Y162559D02*
D03*
X224449Y160984D02*
D03*
X129488Y160591D02*
D03*
X126732Y162165D02*
D03*
Y165315D02*
D03*
X129488Y166890D02*
D03*
X126732Y168465D02*
D03*
X129488Y170039D02*
D03*
Y173189D02*
D03*
X126732Y174764D02*
D03*
X129488Y176339D02*
D03*
X126732Y177913D02*
D03*
Y181063D02*
D03*
X129488Y182638D02*
D03*
X232677Y165748D02*
D03*
X122047Y163779D02*
D03*
X135827Y143307D02*
D03*
X140157Y170472D02*
D03*
X143701Y166693D02*
D03*
X208268Y168110D02*
D03*
X200787Y156693D02*
D03*
X179528Y164567D02*
D03*
X179134Y179528D02*
D03*
X179528Y169685D02*
D03*
X165748Y175197D02*
D03*
X135433Y123622D02*
D03*
X107874Y143307D02*
D03*
Y123622D02*
D03*
Y162992D02*
D03*
X166929D02*
D03*
X210236Y147244D02*
D03*
X225984D02*
D03*
X190551D02*
D03*
X166929D02*
D03*
X225984Y198425D02*
D03*
X245669Y170866D02*
D03*
Y135433D02*
D03*
Y115748D02*
D03*
X143307Y107874D02*
D03*
X111811D02*
D03*
X127559Y198425D02*
D03*
X135433D02*
D03*
X143307Y162992D02*
D03*
Y147244D02*
D03*
X196063Y182382D02*
D03*
X212992Y167087D02*
D03*
X151181Y159055D02*
D03*
Y147244D02*
D03*
X154035Y170571D02*
D03*
X143807Y182862D02*
D03*
X210236Y197244D02*
D03*
X196850Y172047D02*
D03*
D27*
X244094Y189685D02*
D03*
Y154331D02*
D03*
X226811Y155748D02*
D03*
X109843Y153937D02*
D03*
Y189291D02*
D03*
X127126Y187874D02*
D03*
D28*
X226811Y188268D02*
D03*
D29*
X221890Y157835D02*
D03*
X132047Y185787D02*
D03*
D30*
X221890Y186772D02*
D03*
X132047Y156850D02*
D03*
D31*
X127126Y155354D02*
D03*
D32*
X145079Y124016D02*
D03*
X117520D02*
D03*
D33*
X154921Y112598D02*
D03*
X123425Y111417D02*
D03*
X154921Y135433D02*
D03*
X123425Y136614D02*
D03*
M02*
