M48
;Layer_Color=6321
;FILE_FORMAT=2:4
INCH,TZ
;TYPE=PLATED
T1F00S00C0.0118
T2F00S00C0.0157
%
T01
X11181Y10787
X10787Y12362
Y14331
X13583
X14331Y14724
X15118
X13543Y12362
X14331Y10787
X16693Y14724
X19055
X21024
X22598
X24567Y13543
Y11575
Y17087
X23268Y16575
X21299Y16709
X20827Y16811
X19685Y17205
X19606Y18238
X17913Y17953
X17953Y16968
Y16457
X16693Y16299
X16575Y17520
X20079Y15669
X21024Y19724
X22598Y19843
X13543
X12756
X14381Y18286
X14016Y17047
X14370Y16669
X14331Y16299
X15118Y15906
X15404Y17057
X12205Y16378
X10787Y16299
T02
X22445Y16098
X22720Y16256
Y16571
Y16886
X22445Y16728
Y17043
Y17358
Y17673
X22720Y17831
Y18146
X22445Y18303
X22720Y17516
X12949Y17634
Y17319
Y17004
Y16689
X12673Y16531
Y16217
X12949Y16059
X12673Y16846
Y17476
Y17791
Y18106
X12949Y18264
M30
